<?xml version="1.0" encoding="UTF-8"?><svg id="Layer_1" xmlns="http://www.w3.org/2000/svg" viewBox="0 0 811.77 70.31"><path d="m0,1.6h30.27c16.73,0,23.22,10.62,23.22,21.52s-6.49,21.52-23.22,21.52h-15.51v24.06H0V1.6Zm14.76,31.58h11.47c6.86,0,12.97-1.5,12.97-10.06s-6.11-10.06-12.97-10.06h-11.47v20.11Z"/><path d="m120.04,0c20.77,0,32.99,15.51,32.99,35.44s-12.22,34.87-32.99,34.87-32.99-15.51-32.99-34.87S99.26,0,120.04,0Zm0,57.9c13.25,0,18.23-11.28,18.23-22.46,0-11.75-4.98-23.03-18.23-23.03s-18.24,11.28-18.24,23.03,4.98,22.46,18.24,22.46Z"/><path d="m190.35,1.6h14.76v54.7h32.71v12.41h-47.47V1.6Z"/><path d="m280.31,42.58L255.58,1.6h16.64l15.7,26.51,15.6-26.51h16.45l-24.91,41.36v25.75h-14.76v-26.13Z"/><path d="m416.79,68.71h-14.66l-11.37-45.68h-.19l-11.19,45.68h-14.94L346.67,1.6h14.76l10.62,45.68h.19l11.66-45.68h13.82l11.47,46.24h.19l11-46.24h14.48l-18.05,67.11Z"/><path d="m498.95,0c20.77,0,32.99,15.51,32.99,35.44s-12.22,34.87-32.99,34.87-32.99-15.51-32.99-34.87S478.17,0,498.95,0Zm0,57.9c13.25,0,18.24-11.28,18.24-22.46,0-11.75-4.98-23.03-18.24-23.03s-18.23,11.28-18.23,23.03,4.98,22.46,18.23,22.46Z"/><path d="m569.26,1.6h36.19c12.03,0,19.64,8.37,19.64,18.52,0,7.9-3.2,13.82-10.62,16.83v.19c7.24,1.88,9.31,8.93,9.78,15.7.28,4.23.19,12.13,2.82,15.89h-14.76c-1.79-4.23-1.6-10.72-2.35-16.07-1.03-7.05-3.76-10.15-11.19-10.15h-14.76v26.22h-14.76V1.6Zm14.76,30.36h16.17c6.58,0,10.15-2.82,10.15-9.59s-3.57-9.31-10.15-9.31h-16.17v18.89Z"/><path d="m664.39,1.6h14.76v27.82l26.22-27.82h18.42l-26.22,26.51,28.76,40.61h-18.52l-20.21-30.17-8.46,8.55v21.62h-14.76V1.6Z"/><path d="m769.57,46.43c0,8.93,6.96,12.41,14.85,12.41,5.17,0,13.07-1.5,13.07-8.37,0-7.24-10.06-8.46-19.93-11.09-9.96-2.63-20.02-6.49-20.02-19.08,0-13.72,12.97-20.3,25.1-20.3,14,0,26.88,6.11,26.88,21.62h-14.29c-.47-8.08-6.2-10.15-13.25-10.15-4.7,0-10.15,1.97-10.15,7.61,0,5.17,3.2,5.83,20.02,10.15,4.89,1.22,19.93,4.32,19.93,19.55,0,12.31-9.68,21.52-27.92,21.52-14.85,0-28.76-7.33-28.57-23.88h14.29Z"/></svg>